<?xml version="1.0" encoding="UTF-8" standalone="no"?>
<!DOCTYPE svg PUBLIC "-//W3C//DTD SVG 1.1//EN" "http://www.w3.org/Graphics/SVG/1.1/DTD/svg11.dtd">
<svg width="100%" height="100%" viewBox="0 0 430 150" version="1.1" xmlns="http://www.w3.org/2000/svg" xmlns:xlink="http://www.w3.org/1999/xlink" xml:space="preserve" xmlns:serif="http://www.serif.com/" style="fill-rule:evenodd;clip-rule:evenodd;stroke-linejoin:round;stroke-miterlimit:2;">
    <g transform="matrix(1.06424,0,0,1,0.296855,0)">
        <rect x="-4.621" y="-5.289" width="426.657" height="166.643" style="fill:rgb(248,145,30);"/>
    </g>
    <g transform="matrix(6.95602,0,0,6.95602,-256.307,-408.004)">
        <path d="M41.871,66.993C41.734,66.962 41.567,66.947 41.367,66.947C40.719,66.947 40.395,66.798 40.395,66.501C40.395,66.404 40.427,66.319 40.491,66.246C40.556,66.174 40.656,66.138 40.793,66.138C40.945,66.138 41.139,66.226 41.373,66.402C41.608,66.577 41.797,66.695 41.942,66.753C41.926,66.593 41.876,66.395 41.792,66.158C41.708,65.922 41.666,65.751 41.666,65.646C41.666,65.517 41.7,65.407 41.769,65.315C41.837,65.223 41.924,65.177 42.029,65.177C42.295,65.177 42.426,65.318 42.422,65.599C42.422,65.712 42.386,65.907 42.314,66.182C42.241,66.457 42.201,66.652 42.193,66.765C42.346,66.702 42.538,66.582 42.771,66.405C43.003,66.227 43.192,66.138 43.336,66.138C43.481,66.138 43.585,66.178 43.65,66.258C43.714,66.338 43.746,66.419 43.746,66.501C43.746,66.798 43.469,66.947 42.914,66.947C42.668,66.947 42.449,66.962 42.258,66.993C42.356,67.099 42.495,67.213 42.677,67.336C42.859,67.459 43,67.571 43.102,67.67C43.203,67.77 43.254,67.892 43.254,68.036C43.254,68.142 43.218,68.226 43.146,68.288C43.073,68.351 42.992,68.382 42.902,68.382C42.766,68.382 42.651,68.319 42.56,68.192C42.468,68.065 42.376,67.883 42.284,67.647C42.193,67.41 42.115,67.24 42.053,67.134C41.998,67.24 41.922,67.416 41.824,67.664C41.727,67.912 41.634,68.094 41.546,68.209C41.458,68.325 41.346,68.382 41.209,68.382C41.104,68.382 41.02,68.348 40.957,68.28C40.895,68.211 40.863,68.134 40.863,68.048C40.863,67.896 40.915,67.768 41.019,67.664C41.122,67.561 41.266,67.451 41.449,67.336C41.633,67.221 41.774,67.107 41.871,66.993Z" style="fill:white;fill-rule:nonzero;"/>
        <path d="M46.318,69.261C46.326,69.367 46.375,69.367 46.465,69.261C47.039,68.613 47.647,68.288 48.287,68.288C48.592,68.288 48.854,68.371 49.072,68.537C49.291,68.703 49.43,68.913 49.488,69.167C49.508,69.245 49.551,69.247 49.617,69.173C50.176,68.583 50.836,68.288 51.598,68.288C52.086,68.288 52.414,68.452 52.582,68.781C52.75,69.109 52.834,69.581 52.834,70.199L52.834,72.091C52.834,72.572 52.876,72.867 52.96,72.979C53.044,73.09 53.258,73.159 53.602,73.187C53.633,73.226 53.649,73.293 53.649,73.389C53.649,73.485 53.633,73.548 53.602,73.579C53.152,73.564 52.74,73.556 52.365,73.556C51.951,73.556 51.543,73.564 51.141,73.579C51.109,73.548 51.094,73.485 51.094,73.389C51.094,73.293 51.109,73.226 51.141,73.187C51.469,73.163 51.675,73.093 51.759,72.976C51.843,72.859 51.885,72.564 51.885,72.091L51.885,69.982C51.885,69.599 51.825,69.325 51.706,69.158C51.587,68.992 51.408,68.909 51.17,68.909C50.596,68.909 50.067,69.175 49.582,69.706C49.59,69.804 49.594,69.964 49.594,70.187L49.594,72.091C49.594,72.572 49.634,72.867 49.714,72.979C49.794,73.09 49.99,73.159 50.303,73.187C50.334,73.226 50.35,73.291 50.35,73.383C50.35,73.475 50.334,73.54 50.303,73.579C49.904,73.564 49.512,73.556 49.125,73.556C48.711,73.556 48.303,73.564 47.901,73.579C47.869,73.54 47.854,73.473 47.854,73.377C47.854,73.282 47.869,73.218 47.901,73.187C48.236,73.163 48.444,73.095 48.525,72.982C48.605,72.868 48.645,72.572 48.645,72.091L48.645,70.005C48.645,69.279 48.381,68.913 47.854,68.909C47.471,68.909 47.039,69.146 46.559,69.618C46.422,69.763 46.354,69.931 46.354,70.122L46.354,72.091C46.354,72.423 46.377,72.661 46.424,72.806C46.471,72.95 46.537,73.044 46.623,73.087C46.709,73.13 46.867,73.163 47.098,73.187C47.133,73.222 47.151,73.287 47.151,73.383C47.151,73.479 47.133,73.544 47.098,73.579C46.617,73.564 46.213,73.556 45.885,73.556C45.502,73.556 45.07,73.564 44.59,73.579C44.559,73.548 44.543,73.485 44.543,73.389C44.543,73.293 44.559,73.226 44.59,73.187C44.942,73.163 45.166,73.093 45.264,72.976C45.361,72.859 45.41,72.564 45.41,72.091L45.41,69.753C45.41,69.417 45.363,69.205 45.27,69.117C45.176,69.03 44.961,68.97 44.625,68.939C44.578,68.802 44.57,68.689 44.602,68.599C45.195,68.521 45.688,68.406 46.078,68.253C46.141,68.253 46.19,68.284 46.225,68.347C46.264,68.437 46.295,68.742 46.318,69.261Z" style="fill:white;fill-rule:nonzero;"/>
        <path d="M57.27,70.761L56.32,71.013C55.559,71.204 55.18,71.644 55.184,72.331C55.184,72.546 55.257,72.742 55.403,72.92C55.55,73.098 55.764,73.187 56.045,73.187C56.318,73.187 56.67,73.009 57.1,72.654C57.213,72.564 57.27,72.46 57.27,72.343L57.27,70.761ZM57.27,72.982L57.246,72.982L57.006,73.169C56.572,73.505 56.137,73.673 55.699,73.673C54.692,73.673 54.188,73.242 54.188,72.378C54.188,71.98 54.369,71.628 54.733,71.324C55.096,71.019 55.574,70.79 56.168,70.638L57.199,70.386C57.246,70.37 57.27,70.324 57.27,70.245C57.27,69.206 56.945,68.687 56.297,68.687C56.031,68.687 55.805,68.729 55.617,68.813C55.43,68.897 55.336,69.023 55.336,69.191C55.336,69.304 55.344,69.382 55.359,69.425C55.383,69.472 55.397,69.544 55.401,69.642C55.401,69.732 55.346,69.823 55.236,69.914C55.127,70.006 54.992,70.052 54.832,70.052C54.551,70.052 54.412,69.908 54.416,69.618C54.416,69.283 54.622,68.977 55.034,68.701C55.446,68.426 55.901,68.288 56.397,68.288C57.604,68.288 58.207,68.964 58.207,70.316L58.207,72.079C58.207,72.247 58.209,72.379 58.213,72.475C58.217,72.571 58.231,72.675 58.254,72.788C58.277,72.902 58.316,72.982 58.368,73.029C58.421,73.075 58.486,73.099 58.565,73.099C58.709,73.099 58.858,73.034 59.01,72.906C59.123,72.968 59.192,73.077 59.215,73.234C58.91,73.531 58.529,73.677 58.072,73.673C57.799,73.673 57.607,73.614 57.495,73.494C57.384,73.375 57.309,73.204 57.27,72.982Z" style="fill:white;fill-rule:nonzero;"/>
        <path d="M61.442,69.261C62.008,68.613 62.664,68.288 63.41,68.288C63.867,68.288 64.199,68.425 64.406,68.699C64.621,68.988 64.729,69.523 64.729,70.304L64.729,72.091C64.729,72.564 64.775,72.856 64.866,72.967C64.958,73.078 65.18,73.152 65.531,73.187C65.563,73.226 65.578,73.293 65.578,73.389C65.578,73.485 65.563,73.548 65.531,73.579C65.051,73.564 64.627,73.556 64.26,73.556C63.924,73.556 63.516,73.564 63.035,73.579C63.004,73.54 62.988,73.473 62.988,73.377C62.988,73.282 63.004,73.218 63.035,73.187C63.363,73.156 63.569,73.083 63.653,72.97C63.737,72.857 63.779,72.564 63.779,72.091L63.779,70.269C63.779,69.843 63.733,69.534 63.639,69.343C63.486,69.054 63.274,68.909 63,68.909C62.512,68.909 62.024,69.146 61.535,69.618C61.399,69.771 61.33,69.939 61.33,70.122L61.33,72.091C61.33,72.564 61.372,72.856 61.456,72.967C61.54,73.078 61.742,73.152 62.063,73.187C62.094,73.226 62.11,73.293 62.112,73.389C62.114,73.485 62.098,73.548 62.063,73.579C61.582,73.564 61.184,73.556 60.867,73.556C60.469,73.556 60.027,73.564 59.543,73.579C59.512,73.548 59.496,73.485 59.496,73.389C59.496,73.293 59.512,73.226 59.543,73.187C59.918,73.156 60.152,73.085 60.246,72.976C60.34,72.867 60.387,72.572 60.387,72.091L60.387,69.753C60.387,69.417 60.341,69.205 60.249,69.117C60.157,69.03 59.942,68.97 59.602,68.939C59.555,68.802 59.547,68.689 59.578,68.599C60.172,68.521 60.664,68.406 61.055,68.253C61.117,68.253 61.166,68.284 61.201,68.347C61.248,68.445 61.279,68.749 61.295,69.261C61.295,69.367 61.344,69.367 61.442,69.261Z" style="fill:white;fill-rule:nonzero;"/>
        <path d="M68.338,73.673C67.787,73.673 67.392,73.52 67.151,73.213C66.911,72.907 66.791,72.517 66.791,72.044L66.791,69.742C66.791,69.367 66.741,69.118 66.642,68.997C66.542,68.876 66.344,68.804 66.047,68.781C66.016,68.749 66,68.686 66,68.59C66,68.494 66.016,68.425 66.047,68.382C66.59,68.398 66.998,68.406 67.272,68.406C67.471,68.406 67.611,68.398 67.693,68.382C67.756,68.382 67.787,68.408 67.787,68.458C67.756,69.044 67.74,69.456 67.74,69.695L67.74,71.874C67.74,72.347 67.838,72.671 68.033,72.847C68.229,73.023 68.451,73.111 68.701,73.111C69.061,73.111 69.461,72.919 69.902,72.536C70.031,72.423 70.094,72.267 70.09,72.068L70.09,69.753C70.09,69.37 70.042,69.117 69.946,68.992C69.851,68.867 69.651,68.796 69.346,68.781C69.307,68.749 69.287,68.686 69.287,68.59C69.287,68.494 69.307,68.425 69.346,68.382C69.889,68.398 70.297,68.406 70.57,68.406C70.77,68.406 70.91,68.398 70.992,68.382C71.055,68.382 71.086,68.408 71.086,68.458C71.055,69.044 71.039,69.456 71.039,69.695L71.039,71.997C71.039,72.31 71.094,72.526 71.203,72.645C71.313,72.764 71.551,72.839 71.918,72.87C71.957,72.909 71.977,72.965 71.977,73.037C71.977,73.11 71.957,73.163 71.918,73.199C71.277,73.269 70.805,73.427 70.5,73.673C70.43,73.704 70.354,73.704 70.272,73.673C70.201,73.4 70.158,73.165 70.143,72.97C70.135,72.931 70.11,72.912 70.069,72.914C70.028,72.916 69.992,72.931 69.961,72.958C69.367,73.435 68.826,73.673 68.338,73.673Z" style="fill:white;fill-rule:nonzero;"/>
        <path d="M72.955,68.288C73.17,68.367 73.406,68.406 73.664,68.406L75.861,68.406C75.967,68.406 76.075,68.404 76.187,68.4C76.298,68.396 76.394,68.392 76.474,68.388C76.554,68.384 76.598,68.382 76.606,68.382C76.703,68.382 76.752,68.41 76.752,68.467C76.752,68.524 76.68,68.671 76.535,68.909C75.512,70.597 74.551,72.009 73.652,73.146L75.252,73.146C75.549,73.138 75.778,73.069 75.941,72.938C76.103,72.807 76.264,72.574 76.424,72.238L76.594,71.886C76.746,71.886 76.865,71.911 76.951,71.962C76.861,72.564 76.734,73.107 76.57,73.591L72.826,73.556C72.643,73.556 72.551,73.507 72.551,73.409C72.551,73.347 72.586,73.267 72.656,73.169C73.856,71.56 74.84,70.109 75.609,68.816L74.074,68.851C73.625,68.859 73.301,69.224 73.102,69.947C72.965,69.978 72.832,69.964 72.703,69.906C72.817,69.304 72.877,68.788 72.885,68.359C72.885,68.312 72.908,68.288 72.955,68.288Z" style="fill:white;fill-rule:nonzero;"/>
        <path d="M78.27,66.367C78.27,66.222 78.338,66.09 78.475,65.971C78.611,65.852 78.752,65.792 78.897,65.792C79.049,65.792 79.183,65.859 79.298,65.992C79.413,66.124 79.471,66.265 79.471,66.413C79.471,66.55 79.407,66.681 79.28,66.806C79.153,66.931 79.01,66.993 78.85,66.993C78.705,66.993 78.572,66.927 78.451,66.794C78.33,66.661 78.27,66.519 78.27,66.367ZM79.365,72.091C79.365,72.572 79.413,72.867 79.509,72.979C79.605,73.09 79.844,73.159 80.227,73.187C80.266,73.226 80.285,73.293 80.285,73.389C80.285,73.485 80.266,73.548 80.227,73.579C79.699,73.564 79.256,73.556 78.897,73.556C78.529,73.556 78.08,73.564 77.549,73.579C77.518,73.548 77.502,73.485 77.502,73.389C77.502,73.293 77.518,73.226 77.549,73.187C77.932,73.156 78.172,73.085 78.27,72.976C78.367,72.867 78.416,72.572 78.416,72.091L78.416,69.753C78.416,69.417 78.37,69.205 78.278,69.117C78.187,69.03 77.973,68.97 77.637,68.939C77.59,68.802 77.582,68.689 77.613,68.599C78.356,68.501 78.902,68.386 79.254,68.253C79.359,68.253 79.412,68.281 79.412,68.335C79.381,68.847 79.365,69.302 79.365,69.7L79.365,72.091Z" style="fill:white;fill-rule:nonzero;"/>
        <path d="M80.936,71.095C80.936,70.302 81.156,69.646 81.598,69.126C82.074,68.568 82.701,68.288 83.479,68.288C84.053,68.288 84.538,68.43 84.935,68.713C85.331,68.996 85.608,69.334 85.764,69.727C85.92,70.119 85.998,70.54 85.998,70.99C85.998,71.825 85.738,72.497 85.219,73.005C84.762,73.454 84.174,73.677 83.455,73.673C82.654,73.673 82.034,73.413 81.595,72.894C81.155,72.374 80.936,71.775 80.936,71.095ZM83.297,68.71C82.41,68.71 81.967,69.413 81.967,70.82C81.967,71.077 81.997,71.338 82.058,71.602C82.118,71.866 82.208,72.125 82.327,72.381C82.446,72.637 82.618,72.847 82.843,73.011C83.068,73.175 83.328,73.257 83.625,73.257C83.977,73.257 84.288,73.113 84.56,72.824C84.831,72.534 84.967,72.05 84.967,71.37C84.967,70.515 84.818,69.858 84.522,69.399C84.225,68.94 83.817,68.71 83.297,68.71Z" style="fill:white;fill-rule:nonzero;"/>
    </g>
</svg>
